# Blender v2.76 (sub 0) OBJ File: 'simple.blend'
# www.blender.org
mtllib simple.mtl
o Plane.011_Plane.022
v -0.799879 0.813064 0.177251
v -0.871261 1.095661 0.365431
v -0.489989 2.079301 0.500110
v -0.925912 -0.277889 0.153747
v -0.633767 0.675177 0.335506
v -0.769954 -0.098836 0.361475
v -0.109489 0.600713 1.214476
v -0.418680 0.985350 0.996770
v -0.310485 0.017252 1.064389
v -1.019375 -0.440661 0.205998
v -0.660062 -0.731202 0.506625
v -0.473378 -0.642553 0.801644
v -0.842409 -0.950939 0.169535
v -0.877534 -1.364437 0.173874
v -0.630924 -1.388328 0.371751
v -0.102950 1.780510 1.121373
v 0.867498 2.562860 0.686099
v 1.002698 2.187551 1.255598
v 0.979968 0.587274 1.350784
v -0.300350 -1.354095 0.531925
v 0.189432 -0.981942 0.867349
v 0.446364 -0.500174 1.151507
v -0.703392 -1.474042 0.134726
v -0.406404 -1.487285 0.184819
v 2.276867 1.914075 0.388193
v 2.270215 1.617541 0.697997
v 2.385285 0.629940 0.697997
v 1.982435 -0.100172 0.697997
v 1.415627 -0.209972 0.783689
v 0.848241 -0.611479 0.925963
v 0.704511 -0.930607 0.827420
v 0.386904 -1.271586 0.489710
v 0.254520 -1.355877 0.293645
v -0.799879 0.813064 -0.177252
v -0.871261 1.095661 -0.365431
v -0.489989 2.079301 -0.500110
v -0.925912 -0.277889 -0.153747
v -0.633767 0.675177 -0.335506
v -0.769954 -0.098836 -0.361475
v -0.109489 0.600713 -1.214476
v -0.418678 0.985349 -0.996774
v -0.310485 0.017252 -1.064389
v -1.019375 -0.440661 -0.205998
v -0.660062 -0.731202 -0.506625
v -0.473378 -0.642553 -0.801644
v -0.842409 -0.950939 -0.169535
v -0.877534 -1.364437 -0.173874
v -0.630924 -1.388328 -0.371751
v -0.102950 1.780510 -1.121373
v 0.867498 2.562860 -0.686099
v 1.002698 2.187551 -1.255598
v 0.979968 0.587274 -1.350784
v -0.300350 -1.354095 -0.531925
v 0.189432 -0.981942 -0.867349
v 0.446364 -0.500174 -1.151507
v -0.703392 -1.474042 -0.134726
v -0.406404 -1.487285 -0.184819
v 2.276867 1.914075 -0.388193
v 2.270215 1.617541 -0.697997
v 2.385285 0.629940 -0.697997
v 1.982435 -0.100172 -0.697997
v 1.415627 -0.209972 -0.783689
v 0.848241 -0.611479 -0.925963
v 0.704511 -0.930607 -0.827420
v 0.386904 -1.271586 -0.489710
v 0.254520 -1.355877 -0.293646
v -0.871261 1.095661 -0.000000
v 2.625585 0.662283 -0.000000
v -0.489989 2.125678 -0.000000
v 0.867498 2.626980 -0.000000
v 2.336101 1.983540 -0.000000
v 2.278690 -0.276775 -0.000000
v 0.254520 -1.360091 -0.000000
v -0.412420 -1.501492 -0.000000
v -0.877534 -1.364437 -0.000000
v -0.842409 -0.950939 -0.000000
v -1.006060 -0.495206 -0.000000
v -0.890260 -0.289271 -0.000000
v -0.818371 0.813064 -0.000000
v -0.703392 -1.474042 -0.000000
v -0.200000 0.650000 -0.780000
v -0.200000 0.650000 0.780000
vn -0.973800 -0.225100 0.033200
vn -0.935400 0.353000 0.018900
vn -0.816100 0.266900 0.512700
vn -0.863800 0.461600 -0.202200
vn -0.674400 0.164700 0.719700
vn -0.837900 -0.015300 0.545700
vn -0.996400 0.084600 0.000000
vn -0.621100 0.061000 0.781400
vn -0.820300 -0.149700 0.551900
vn -0.776300 0.218000 0.591500
vn -0.345000 0.934600 0.087100
vn -0.343600 0.744600 0.572200
vn -0.182200 0.069200 0.980800
vn -0.318800 -0.402800 0.858000
vn -0.292200 -0.323700 0.899900
vn -0.157300 -0.135400 0.978200
vn -0.532700 -0.846300 0.000000
vn -0.414400 -0.808000 0.418900
vn -0.072800 -0.996300 0.045700
vn -0.094700 -0.922400 0.374600
vn 0.417400 0.898700 0.134800
vn 0.486000 0.727300 0.484600
vn 0.420200 0.047900 0.906200
vn 0.419600 0.048900 0.906400
vn 0.353900 -0.318900 0.879300
vn 0.421400 -0.343700 0.839200
vn 0.209400 -0.504900 0.837400
vn 0.127900 -0.753500 0.644800
vn 0.198400 -0.979500 0.035200
vn 0.133300 -0.938900 0.317400
vn 0.953200 0.166700 0.252200
vn 0.849000 -0.381400 0.365700
vn -0.973800 -0.225200 -0.033200
vn -0.935400 0.353000 -0.018900
vn -0.816100 0.266900 -0.512700
vn -0.863800 0.461600 0.202200
vn -0.674400 0.164700 -0.719700
vn -0.837900 -0.015300 -0.545700
vn -0.621100 0.061000 -0.781400
vn -0.820300 -0.149700 -0.551900
vn -0.776300 0.218000 -0.591500
vn -0.345000 0.934600 -0.087100
vn -0.343600 0.744600 -0.572200
vn -0.182200 0.069200 -0.980800
vn -0.318800 -0.402800 -0.858000
vn -0.292200 -0.323700 -0.899900
vn -0.157300 -0.135400 -0.978200
vn -0.414400 -0.808000 -0.418900
vn -0.072800 -0.996300 -0.045700
vn -0.094700 -0.922400 -0.374600
vn 0.417400 0.898700 -0.134800
vn 0.486000 0.727300 -0.484600
vn 0.420200 0.047900 -0.906200
vn 0.419600 0.048900 -0.906400
vn 0.353900 -0.318900 -0.879300
vn 0.421400 -0.343700 -0.839200
vn 0.209400 -0.504900 -0.837400
vn 0.127900 -0.753500 -0.644800
vn 0.198400 -0.979500 -0.035200
vn 0.133300 -0.938900 -0.317400
vn 0.953200 0.166700 -0.252200
vn 0.849000 -0.381400 -0.365700
usemtl None
s off
f 2//1 67//1 79//1 1//1
f 3//2 69//2 67//2 2//2
f 6//3 9//3 7//3 82//3 5//3
f 77//4 10//4 4//4 78//4
f 6//5 4//5 10//5 11//5
f 9//6 6//6 11//6 12//6
f 75//7 14//7 13//7 76//7
f 14//8 15//8 13//8
f 12//9 11//9 13//9 15//9
f 3//10 2//10 8//10 16//10
f 17//11 70//11 69//11 3//11
f 16//12 18//12 17//12 3//12
f 7//13 19//13 18//13 16//13 8//13
f 21//14 12//14 15//14 20//14
f 22//15 9//15 12//15 21//15
f 9//16 22//16 19//16 7//16
f 14//17 75//17 80//17 23//17
f 15//18 14//18 23//18
f 74//19 24//19 23//19 80//19
f 20//20 15//20 23//20 24//20
f 25//21 71//21 70//21 17//21
f 18//22 26//22 25//22 17//22
f 19//23 26//23 18//23
f 26//24 19//24 27//24
f 19//25 29//25 28//25 27//25
f 22//26 30//26 29//26 19//26
f 31//27 30//27 22//27 21//27
f 32//28 31//28 21//28 20//28
f 73//29 33//29 24//29 74//29
f 24//30 33//30 32//30 20//30
f 68//31 71//31 25//31 26//31 27//31
f 72//32 68//32 27//32 28//32
f 35//33 34//33 79//33 67//33
f 36//34 35//34 67//34 69//34
f 39//35 38//35 81//35 40//35 42//35
f 77//36 78//36 37//36 43//36
f 39//37 44//37 43//37 37//37
f 42//38 45//38 44//38 39//38
f 75//7 76//7 46//7 47//7
f 47//39 46//39 48//39
f 45//40 48//40 46//40 44//40
f 36//41 49//41 41//41 35//41
f 50//42 36//42 69//42 70//42
f 49//43 36//43 50//43 51//43
f 40//44 41//44 49//44 51//44 52//44
f 54//45 53//45 48//45 45//45
f 55//46 54//46 45//46 42//46
f 42//47 40//47 52//47 55//47
f 47//17 56//17 80//17 75//17
f 48//48 56//48 47//48
f 74//49 80//49 56//49 57//49
f 53//50 57//50 56//50 48//50
f 58//51 50//51 70//51 71//51
f 51//52 50//52 58//52 59//52
f 52//53 51//53 59//53
f 59//54 60//54 52//54
f 52//55 60//55 61//55 62//55
f 55//56 52//56 62//56 63//56
f 64//57 54//57 55//57 63//57
f 65//58 53//58 54//58 64//58
f 73//59 74//59 57//59 66//59
f 57//60 53//60 65//60 66//60
f 68//61 60//61 59//61 58//61 71//61
f 72//62 61//62 60//62 68//62
o Nose_Plane.002
v -1.265103 0.024786 0.177251
v -0.799879 0.813064 0.177251
v -0.925912 -0.277889 0.153747
v -0.633767 0.675177 0.335506
v -0.769954 -0.098836 0.361475
v -1.265103 0.024786 -0.177252
v -0.799879 0.813064 -0.177252
v -0.925912 -0.277889 -0.153747
v -0.633767 0.675177 -0.335506
v -0.769954 -0.098836 -0.361475
v -0.890260 -0.289271 -0.000000
v -1.129402 -0.217317 -0.000000
v -1.368371 0.024786 -0.000000
v -0.818371 0.813064 -0.000000
vn -0.807800 0.520200 0.277400
vn -0.657400 -0.648900 0.383000
vn -0.288100 -0.957600 0.004100
vn -0.473300 -0.581800 0.661400
vn -0.399800 0.168900 0.900900
vn -0.807800 0.520200 -0.277400
vn -0.657400 -0.648900 -0.383000
vn -0.288100 -0.957600 -0.004100
vn -0.473300 -0.581800 -0.661400
vn -0.399800 0.168900 -0.900900
usemtl None
s off
f 95//63 83//63 84//63 96//63
f 95//64 94//64 83//64
f 93//65 85//65 94//65
f 83//66 94//66 85//66 87//66
f 87//67 86//67 84//67 83//67
f 95//68 96//68 89//68 88//68
f 95//69 88//69 94//69
f 93//70 94//70 90//70
f 88//71 92//71 90//71 94//71
f 92//72 88//72 89//72 91//72
o Mouth_Plane.001
v -1.019375 -0.440661 0.205998
v -0.918993 -0.627260 0.214278
v -0.998155 -0.772865 0.186415
v -0.660062 -0.731202 0.506625
v -0.842409 -0.950939 0.169535
v -1.019375 -0.440661 -0.205998
v -0.918993 -0.627260 -0.214278
v -0.998155 -0.772865 -0.186415
v -0.660062 -0.731202 -0.506625
v -0.842409 -0.950939 -0.169535
v -0.842409 -0.950939 -0.000000
v -0.998155 -0.772865 -0.000000
v -0.900000 -0.620000 -0.000000
v -1.006060 -0.495206 -0.000000
vn -0.833400 -0.552600 -0.001900
vn -0.858000 0.512700 -0.031400
vn -0.755000 -0.382500 0.532700
vn -0.683000 0.239300 0.690100
vn -0.752700 -0.658300 0.000000
vn -0.544200 -0.537100 0.644500
vn -0.833400 -0.552600 0.001900
vn -0.858000 0.512700 0.031400
vn -0.755000 -0.382500 -0.532700
vn -0.683000 0.239300 -0.690100
vn -0.544200 -0.537100 -0.644500
usemtl None
s off
f 109//73 98//73 97//73 110//73
f 108//74 99//74 98//74 109//74
f 98//75 100//75 97//75
f 99//76 100//76 98//76
f 107//77 101//77 99//77 108//77
f 100//78 99//78 101//78
f 109//79 110//79 102//79 103//79
f 108//80 109//80 103//80 104//80
f 103//81 102//81 105//81
f 104//82 103//82 105//82
f 107//77 108//77 104//77 106//77
f 105//83 106//83 104//83
o EyeR_Plane.000
v -0.799879 0.813064 0.177251
v -0.871261 1.095661 0.365431
v -0.633767 0.675177 0.335506
v -0.109489 0.600713 1.214476
v -0.418680 0.985350 0.996770
v -0.200000 0.650000 0.780000
vn -0.720300 -0.567000 0.399600
usemtl None
s off
f 112//84 111//84 113//84 116//84 114//84 115//84
o EyeL_Plane.004
v -0.799879 0.813064 -0.177252
v -0.871261 1.095661 -0.365431
v -0.633767 0.675177 -0.335506
v -0.109489 0.600713 -1.214476
v -0.418678 0.985349 -0.996774
v -0.200000 0.650000 -0.780000
vn -0.720300 -0.567000 -0.399600
usemtl None
s off
f 118//85 121//85 120//85 122//85 119//85 117//85
